<?xml version="1.0" encoding="utf-8"?>
<!-- Generator: Adobe Illustrator 16.0.0, SVG Export Plug-In . SVG Version: 6.00 Build 0)  -->
<!DOCTYPE svg PUBLIC "-//W3C//DTD SVG 1.1//EN" "http://www.w3.org/Graphics/SVG/1.1/DTD/svg11.dtd">
<svg version="1.1" id="Layer_1" xmlns="http://www.w3.org/2000/svg" xmlns:xlink="http://www.w3.org/1999/xlink" x="0px" y="0px"
	 width="597.25px" height="118px" viewBox="0 0 597.25 118" enable-background="new 0 0 597.25 118" xml:space="preserve">
<g>
	
		<linearGradient id="SVGID_1_" gradientUnits="userSpaceOnUse" x1="0" y1="47.6504" x2="73.3921" y2="47.6504" gradientTransform="matrix(1 0 0 -1 0 119)">
		<stop  offset="0" style="stop-color:#CA2027"/>
		<stop  offset="1" style="stop-color:#ED2224"/>
	</linearGradient>
	<path fill="url(#SVGID_1_)" d="M61.11,119.991c0.399,0.271,0.659,0.433,0.659,0.433l0.556-0.435L61.11,119.991z M72.87,70.32
		l-5.59-45.55C68.36,36.444,68.748,84.927,0,80.286c0,0,35.105,18.971,43.862,24.928c8.875,6.04,8.229,7.548,10.76,9.567
		l-0.06-22.164l-8.14,0.021l26.97-21.343L72.87,70.32z M66.974,22.276l0.306,2.495C67.135,23.184,66.974,22.276,66.974,22.276z"/>
	
		<linearGradient id="SVGID_2_" gradientUnits="userSpaceOnUse" x1="111.0137" y1="41.5576" x2="83.4554" y2="113.3494" gradientTransform="matrix(1 0 0 -1 0 119)">
		<stop  offset="0" style="stop-color:#FABD1D"/>
		<stop  offset="1" style="stop-color:#ECAE20"/>
	</linearGradient>
	<path fill="url(#SVGID_2_)" d="M108.927,54.489l21.525-40.518c-5.807,10.184-33.273,50.13-86.947,7.015
		c0,0,19.777,35.096,21.655,45.504c0.691,3.822,1.434,7.021,2.12,9.64l17.38-13.754L105.912,79.4L108.927,54.489z M131.634,11.754
		l-1.182,2.217C131.243,12.59,131.634,11.754,131.634,11.754z"/>
	
		<linearGradient id="SVGID_3_" gradientUnits="userSpaceOnUse" x1="78.6758" y1="95.9512" x2="95.5738" y2="112.8492" gradientTransform="matrix(1 0 0 -1 0 119)">
		<stop  offset="0" style="stop-color:#FABD1D"/>
		<stop  offset="1" style="stop-color:#ECAD20"/>
	</linearGradient>
	<path fill="url(#SVGID_3_)" d="M75.168,14.628c-0.02-6.593,5.32-11.953,11.922-11.971c6.605-0.015,11.973,5.314,11.989,11.912
		c0.022,6.596-5.319,11.958-11.925,11.974C80.552,26.561,75.184,21.226,75.168,14.628z"/>
	
		<linearGradient id="SVGID_4_" gradientUnits="userSpaceOnUse" x1="143.7041" y1="53.1733" x2="143.7041" y2="77.0591" gradientTransform="matrix(1 0 0 -1 0 119)">
		<stop  offset="0" style="stop-color:#2657A7"/>
		<stop  offset="1" style="stop-color:#2657A7"/>
	</linearGradient>
	<path fill="url(#SVGID_4_)" d="M131.748,53.915c-0.018-6.597,5.319-11.958,11.924-11.974c6.602-0.018,11.969,5.318,11.989,11.911
		c0.017,6.598-5.319,11.958-11.924,11.975C137.135,65.845,131.767,60.51,131.748,53.915z"/>
	
		<linearGradient id="SVGID_5_" gradientUnits="userSpaceOnUse" x1="24.1309" y1="64.8457" x2="48.0449" y2="64.8457" gradientTransform="matrix(1 0 0 -1 0 119)">
		<stop  offset="0" style="stop-color:#CA2027"/>
		<stop  offset="1" style="stop-color:#ED2224"/>
	</linearGradient>
	<path fill="url(#SVGID_5_)" d="M24.131,54.181c-0.02-6.594,5.32-11.953,11.922-11.972c6.606-0.014,11.975,5.318,11.992,11.915
		c0.02,6.595-5.322,11.956-11.925,11.976C29.515,66.113,24.148,60.779,24.131,54.181z"/>
	
		<linearGradient id="SVGID_6_" gradientUnits="userSpaceOnUse" x1="146.7466" y1="13.7236" x2="113.2636" y2="100.9496" gradientTransform="matrix(1 0 0 -1 0 119)">
		<stop  offset="0" style="stop-color:#204CA1"/>
		<stop  offset="1" style="stop-color:#3063AF"/>
	</linearGradient>
	<path fill="url(#SVGID_6_)" d="M174.312,78.124c-73.686,5.346-68.219-50.783-67.375-57.098l-7.759,52.978l23.89,19.137
		l-9.498,0.021l0.068,24.824c0.802-0.557,1.992-1.43,2.861-2.307c1.435-1.441,5.962-5.75,14.086-12.406
		C138.773,96.561,174.312,78.124,174.312,78.124z M107.02,20.447c0,0-0.033,0.202-0.083,0.579L107.02,20.447z"/>
</g>
<g enable-background="new    ">
	<path fill="#265CAA" d="M202.618,39.693l-4.455,3.932c-1.564-2.177-3.157-3.266-4.778-3.266c-0.79,0-1.435,0.212-1.937,0.634
		c-0.502,0.423-0.753,0.899-0.753,1.429c0,0.53,0.179,1.031,0.538,1.504c0.488,0.631,1.958,1.984,4.412,4.061
		c2.295,1.92,3.688,3.13,4.175,3.631c1.219,1.232,2.084,2.41,2.593,3.534c0.509,1.125,0.764,2.353,0.764,3.685
		c0,2.593-0.896,4.734-2.688,6.424c-1.792,1.69-4.129,2.535-7.011,2.535c-2.251,0-4.212-0.552-5.882-1.654s-3.101-2.836-4.291-5.199
		l5.057-3.051c1.521,2.793,3.271,4.189,5.25,4.189c1.033,0,1.901-0.301,2.604-0.902c0.703-0.602,1.054-1.296,1.054-2.084
		c0-0.716-0.266-1.432-0.796-2.148c-0.531-0.716-1.7-1.812-3.508-3.287c-3.444-2.807-5.667-4.974-6.672-6.499
		s-1.506-3.047-1.506-4.565c0-2.191,0.835-4.071,2.506-5.64c1.67-1.568,3.732-2.353,6.184-2.353c1.578,0,3.08,0.365,4.506,1.096
		S200.955,37.76,202.618,39.693z"/>
	<path fill="#265CAA" d="M208.892,35.396h6.102V47.32h10.549V35.396h6.08V67h-6.08V53.143h-10.549V67h-6.102V35.396z"/>
	<path fill="#265CAA" d="M248.482,35.396h6.101L266.738,67h-6.252l-2.473-6.51h-12.896L242.547,67h-6.252L248.482,35.396z
		 M251.57,43.775l-4.24,10.85h8.455L251.57,43.775z"/>
	<path fill="#265CAA" d="M271.798,35.396h6.374c3.491,0,5.976,0.312,7.457,0.935s2.672,1.658,3.573,3.104
		c0.901,1.447,1.352,3.158,1.352,5.135c0,2.077-0.498,3.813-1.493,5.21s-2.496,2.453-4.5,3.169L292.047,67h-6.576l-7.106-13.385
		h-0.551V67h-6.016V35.396z M277.813,47.75h1.885c1.913,0,3.23-0.251,3.952-0.754s1.082-1.337,1.082-2.501
		c0-0.689-0.179-1.289-0.536-1.8c-0.357-0.51-0.835-0.876-1.435-1.1c-0.6-0.223-1.699-0.334-3.298-0.334h-1.649V47.75z"/>
	<path fill="#265CAA" d="M296.935,35.396h17.252v5.887h-11.279v5.715h11.279v5.779h-11.279v8.314h11.279V67h-17.252V35.396z"/>
	<path fill="#265CAA" d="M319.815,35.396h7.127c4.593,0,8.006,0.569,10.238,1.708s4.072,2.99,5.518,5.554
		c1.445,2.564,2.168,5.558,2.168,8.98c0,2.436-0.404,4.673-1.213,6.714s-1.925,3.735-3.349,5.081
		c-1.425,1.347-2.966,2.277-4.626,2.793S331.143,67,327.05,67h-7.234V35.396z M325.788,41.197v19.938h2.793
		c2.75,0,4.744-0.315,5.983-0.946s2.252-1.692,3.04-3.183c0.787-1.491,1.182-3.327,1.182-5.507c0-3.354-0.938-5.957-2.814-7.807
		c-1.69-1.663-4.404-2.495-8.143-2.495H325.788z"/>
	<path fill="#265CAA" d="M362.892,35.396h6.102V47.32h10.549V35.396h6.08V67h-6.08V53.143h-10.549V67h-6.102V35.396z"/>
	<path fill="#265CAA" d="M407.762,34.602c4.472,0,8.315,1.619,11.534,4.855c3.217,3.237,4.826,7.184,4.826,11.838
		c0,4.612-1.588,8.516-4.762,11.709c-3.176,3.194-7.027,4.791-11.556,4.791c-4.744,0-8.686-1.64-11.824-4.92
		c-3.139-3.279-4.708-7.176-4.708-11.688c0-3.021,0.73-5.801,2.193-8.336c1.461-2.535,3.472-4.544,6.029-6.026
		C402.054,35.343,404.81,34.602,407.762,34.602z M407.697,40.488c-2.925,0-5.384,1.018-7.377,3.051
		c-1.993,2.034-2.989,4.619-2.989,7.756c0,3.495,1.254,6.26,3.764,8.293c1.949,1.59,4.187,2.385,6.71,2.385
		c2.853,0,5.283-1.031,7.29-3.094c2.008-2.063,3.012-4.604,3.012-7.627c0-3.008-1.012-5.554-3.033-7.638
		S410.593,40.488,407.697,40.488z"/>
	<path fill="#265CAA" d="M429.579,35.396h6.037v20.437c0,1.761,0.154,3.006,0.462,3.735s0.816,1.313,1.525,1.75
		s1.564,0.654,2.567,0.654c1.06,0,1.973-0.243,2.739-0.729s1.296-1.105,1.59-1.857c0.294-0.751,0.44-2.186,0.44-4.304V35.396h6.037
		v18.842c0,3.18-0.18,5.386-0.537,6.617c-0.358,1.232-1.042,2.421-2.052,3.566c-1.01,1.146-2.174,1.995-3.491,2.546
		c-1.318,0.551-2.851,0.827-4.598,0.827c-2.292,0-4.286-0.526-5.983-1.579s-2.911-2.37-3.642-3.953
		c-0.73-1.582-1.096-4.257-1.096-8.024V35.396z"/>
	<path fill="#265CAA" d="M474.546,39.693l-4.455,3.932c-1.564-2.177-3.157-3.266-4.778-3.266c-0.79,0-1.435,0.212-1.937,0.634
		c-0.503,0.423-0.754,0.899-0.754,1.429c0,0.53,0.18,1.031,0.538,1.504c0.487,0.631,1.958,1.984,4.411,4.061
		c2.296,1.92,3.688,3.13,4.176,3.631c1.219,1.232,2.084,2.41,2.594,3.534c0.509,1.125,0.764,2.353,0.764,3.685
		c0,2.593-0.896,4.734-2.688,6.424c-1.792,1.69-4.13,2.535-7.011,2.535c-2.252,0-4.213-0.552-5.883-1.654s-3.102-2.836-4.291-5.199
		l5.057-3.051c1.521,2.793,3.271,4.189,5.25,4.189c1.033,0,1.9-0.301,2.604-0.902s1.055-1.296,1.055-2.084
		c0-0.716-0.266-1.432-0.797-2.148c-0.53-0.716-1.699-1.812-3.508-3.287c-3.443-2.807-5.667-4.974-6.672-6.499
		c-1.004-1.525-1.506-3.047-1.506-4.565c0-2.191,0.835-4.071,2.506-5.64c1.67-1.568,3.732-2.353,6.184-2.353
		c1.578,0,3.08,0.365,4.507,1.096S472.882,37.76,474.546,39.693z"/>
	<path fill="#265CAA" d="M480.411,35.396h5.973V67h-5.973V35.396z"/>
	<path fill="#265CAA" d="M493.173,35.396h5.771l13.522,20.797V35.396h6.016V67h-5.787l-13.506-20.732V67h-6.016V35.396z"/>
	<path fill="#265CAA" d="M554.876,40.553l-4.236,4.189c-2.681-2.836-5.806-4.254-9.375-4.254c-3.111,0-5.717,1.031-7.816,3.094
		c-2.101,2.063-3.15,4.569-3.15,7.52c0,3.051,1.09,5.637,3.269,7.756c2.18,2.12,4.868,3.18,8.065,3.18
		c2.079,0,3.832-0.437,5.259-1.311c1.427-0.873,2.577-2.241,3.452-4.104h-9.152v-5.65h15.898l0.043,1.332
		c0,2.765-0.717,5.386-2.148,7.863c-1.433,2.479-3.287,4.369-5.564,5.672s-4.949,1.955-8.014,1.955c-3.28,0-6.206-0.713-8.776-2.138
		c-2.571-1.425-4.605-3.455-6.102-6.091c-1.497-2.635-2.245-5.479-2.245-8.529c0-4.182,1.382-7.82,4.146-10.914
		c3.279-3.681,7.548-5.521,12.805-5.521c2.75,0,5.32,0.509,7.713,1.525C550.966,36.986,552.942,38.462,554.876,40.553z"/>
</g>
<g enable-background="new    ">
	<path fill="#265CAA" d="M575.989,18.541v3.174h-6.272v14.145h-4.314V21.714h-6.272v-3.174H575.989z"/>
	<path fill="#265CAA" d="M587.934,24.962l5.566-6.422h3.75v17.319h-4.313v-10.81l-4.679,5.43h-0.648l-4.678-5.43v10.81h-4.314
		V18.541h3.746L587.934,24.962z"/>
</g>
<g enable-background="new    ">
	<path fill="#265CAA" d="M183.897,99.184l2.197-1.318c1.547,2.848,3.334,4.271,5.361,4.271c0.867,0,1.682-0.202,2.443-0.606
		s1.342-0.946,1.74-1.626s0.598-1.4,0.598-2.162c0-0.867-0.293-1.717-0.879-2.549c-0.809-1.148-2.285-2.531-4.43-4.148
		c-2.156-1.629-3.498-2.807-4.025-3.533c-0.914-1.219-1.371-2.537-1.371-3.955c0-1.125,0.27-2.15,0.809-3.076
		s1.298-1.655,2.276-2.188s2.042-0.8,3.19-0.8c1.219,0,2.358,0.302,3.419,0.905s2.183,1.714,3.366,3.331l-2.109,1.6
		c-0.973-1.289-1.802-2.139-2.487-2.549s-1.433-0.615-2.241-0.615c-1.043,0-1.896,0.316-2.558,0.949s-0.993,1.412-0.993,2.338
		c0,0.563,0.117,1.107,0.352,1.635s0.662,1.102,1.283,1.723c0.34,0.328,1.453,1.189,3.34,2.584c2.238,1.652,3.773,3.123,4.605,4.412
		s1.248,2.584,1.248,3.885c0,1.875-0.712,3.504-2.136,4.887s-3.155,2.074-5.194,2.074c-1.57,0-2.994-0.419-4.271-1.257
		S184.976,101.152,183.897,99.184z"/>
	<path fill="#265CAA" d="M239.78,77.492c3.917,0,7.194,1.307,9.832,3.92c2.639,2.613,3.958,5.83,3.958,9.65
		c0,3.785-1.316,6.996-3.949,9.633c-2.632,2.637-5.842,3.955-9.63,3.955c-3.834,0-7.071-1.313-9.709-3.938s-3.958-5.801-3.958-9.527
		c0-2.484,0.601-4.787,1.803-6.908c1.202-2.121,2.841-3.782,4.916-4.983C235.119,78.093,237.364,77.492,239.78,77.492z
		 M239.895,80.006c-1.913,0-3.727,0.498-5.44,1.495c-1.714,0.997-3.052,2.34-4.015,4.028c-0.962,1.689-1.443,3.571-1.443,5.647
		c0,3.073,1.065,5.668,3.195,7.784c2.13,2.117,4.698,3.176,7.703,3.176c2.007,0,3.864-0.486,5.572-1.46s3.04-2.305,3.997-3.993
		c0.957-1.689,1.435-3.565,1.435-5.63c0-2.052-0.479-3.908-1.435-5.567c-0.957-1.66-2.304-2.988-4.041-3.985
		C243.686,80.504,241.843,80.006,239.895,80.006z"/>
	<path fill="#265CAA" d="M281.724,78.143h2.584v23.361h9.949V104h-12.533V78.143z"/>
	<path fill="#265CAA" d="M321.409,78.143h2.584v15.609c0,1.852,0.035,3.006,0.105,3.463c0.129,1.02,0.428,1.872,0.896,2.558
		s1.189,1.26,2.162,1.723s1.951,0.694,2.936,0.694c0.855,0,1.676-0.182,2.461-0.545c0.785-0.363,1.441-0.867,1.969-1.512
		s0.914-1.424,1.16-2.338c0.176-0.656,0.264-2.004,0.264-4.043V78.143h2.584v15.609c0,2.309-0.227,4.175-0.678,5.599
		s-1.354,2.663-2.707,3.718s-2.991,1.582-4.913,1.582c-2.086,0-3.873-0.498-5.361-1.494s-2.484-2.314-2.988-3.955
		c-0.316-1.008-0.475-2.824-0.475-5.449V78.143z"/>
	<path fill="#265CAA" d="M365.295,80.674v-2.531h14.168v2.531h-5.766V104h-2.637V80.674H365.295z"/>
	<path fill="#265CAA" d="M405.788,78.143h2.584V104h-2.584V78.143z"/>
	<path fill="#265CAA" d="M449.577,77.492c3.917,0,7.194,1.307,9.832,3.92c2.639,2.613,3.959,5.83,3.959,9.65
		c0,3.785-1.316,6.996-3.949,9.633s-5.843,3.955-9.631,3.955c-3.834,0-7.07-1.313-9.709-3.938s-3.957-5.801-3.957-9.527
		c0-2.484,0.601-4.787,1.803-6.908c1.201-2.121,2.84-3.782,4.916-4.983C444.916,78.093,447.161,77.492,449.577,77.492z
		 M449.692,80.006c-1.914,0-3.728,0.498-5.441,1.495c-1.713,0.997-3.051,2.34-4.014,4.028c-0.963,1.689-1.443,3.571-1.443,5.647
		c0,3.073,1.064,5.668,3.195,7.784c2.13,2.117,4.697,3.176,7.703,3.176c2.006,0,3.863-0.486,5.572-1.46
		c1.707-0.974,3.039-2.305,3.996-3.993c0.957-1.689,1.436-3.565,1.436-5.63c0-2.052-0.479-3.908-1.436-5.567
		c-0.957-1.66-2.304-2.988-4.041-3.985C453.483,80.504,451.64,80.006,449.692,80.006z"/>
	<path fill="#265CAA" d="M491.538,104V78.143h0.563l17.209,19.821V78.143h2.549V104h-0.58L494.21,84.42V104H491.538z"/>
	<path fill="#265CAA" d="M538.448,99.184l2.197-1.318c1.547,2.848,3.334,4.271,5.361,4.271c0.867,0,1.682-0.202,2.443-0.606
		s1.342-0.946,1.74-1.626s0.598-1.4,0.598-2.162c0-0.867-0.293-1.717-0.879-2.549c-0.809-1.148-2.285-2.531-4.43-4.148
		c-2.156-1.629-3.498-2.807-4.025-3.533c-0.914-1.219-1.371-2.537-1.371-3.955c0-1.125,0.27-2.15,0.809-3.076
		s1.298-1.655,2.276-2.188s2.042-0.8,3.19-0.8c1.219,0,2.358,0.302,3.419,0.905s2.183,1.714,3.366,3.331l-2.109,1.6
		c-0.973-1.289-1.802-2.139-2.487-2.549s-1.433-0.615-2.241-0.615c-1.043,0-1.896,0.316-2.558,0.949s-0.993,1.412-0.993,2.338
		c0,0.563,0.117,1.107,0.352,1.635s0.662,1.102,1.283,1.723c0.34,0.328,1.453,1.189,3.34,2.584c2.238,1.652,3.773,3.123,4.605,4.412
		s1.248,2.584,1.248,3.885c0,1.875-0.712,3.504-2.136,4.887s-3.155,2.074-5.194,2.074c-1.57,0-2.994-0.419-4.271-1.257
		S539.526,101.152,538.448,99.184z"/>
</g>
</svg>
